<svg version="1.1" viewBox="0.0 0.0 369.8503937007874 129.9475065616798" fill="none" stroke="none" stroke-linecap="square" stroke-miterlimit="10" xmlns:xlink="http://www.w3.org/1999/xlink" xmlns="http://www.w3.org/2000/svg"><clipPath id="p.0"><path d="m0 0l369.8504 0l0 129.94751l-369.8504 0l0 -129.94751z" clip-rule="nonzero"/></clipPath><g clip-path="url(#p.0)"><path fill="#000000" fill-opacity="0.0" d="m0 0l369.8504 0l0 129.94751l-369.8504 0z" fill-rule="evenodd"/><g filter="url(#shadowFilter-p.1)"><use xlink:href="#p.1" transform="matrix(1.0 0.0 0.0 1.0 0.0 2.0)"/></g><defs><filter id="shadowFilter-p.1" filterUnits="userSpaceOnUse"><feGaussianBlur in="SourceAlpha" stdDeviation="2.0" result="blur"/><feComponentTransfer in="blur" color-interpolation-filters="sRGB"><feFuncR type="linear" slope="0" intercept="0.0"/><feFuncG type="linear" slope="0" intercept="0.0"/><feFuncB type="linear" slope="0" intercept="0.0"/><feFuncA type="linear" slope="0.5" intercept="0"/></feComponentTransfer></filter></defs><g id="p.1"><path fill="#000000" fill-opacity="0.0" d="m-0.47637796 25.359581l370.80316 0l0 28.31496l-370.80316 0z" fill-rule="evenodd"/><path fill="#078e58" d="m56.601746 62.284576l-18.875 0l0 48.875l-9.046873 0l0 -48.875l-18.953125 0l0 -7.921875l46.875 0l0 7.921875zm17.03621 49.671875q-4.875 0 -8.84375 -1.71875q-3.953125 -1.71875 -6.828125 -4.71875q-2.875 -3.0 -4.4375 -6.875q-1.5625 -3.890625 -1.5625 -8.28125q0 -5.921875 2.71875 -10.84375q2.71875 -4.921875 7.59375 -7.921875q4.890625 -3.0 11.4375 -3.0q6.5625 0 11.328125 3.0q4.765625 3.0 7.40625 7.890625q2.640625 4.875 2.640625 10.46875q0 0.96875 -0.09375 1.8125q-0.078125 0.828125 -0.15625 1.390625l-33.515625 0q0.234375 3.6875 2.03125 6.453125q1.8125 2.75 4.609375 4.3125q2.796875 1.546875 6.0 1.546875q3.515625 0 6.671875 -1.75q3.171875 -1.765625 4.28125 -4.640625l7.53125 2.15625q-1.359375 3.046875 -4.125 5.484375q-2.765625 2.4375 -6.53125 3.84375q-3.75 1.390625 -8.15625 1.390625zm-12.546875 -24.640625l25.265625 0q-0.234375 -3.59375 -2.03125 -6.34375q-1.796875 -2.765625 -4.5625 -4.328125q-2.765625 -1.5625 -6.125 -1.5625q-3.28125 0 -6.046875 1.5625q-2.75 1.5625 -4.515625 4.328125q-1.75 2.75 -1.984375 6.34375zm64.709335 -10.390625q-5.109375 0.078125 -9.078125 2.3125q-3.953125 2.234375 -5.640625 6.328125l0 25.59375l-8.796875 0l0 -41.84375l8.15625 0l0 9.359375q2.15625 -4.3125 5.671875 -6.90625q3.53125 -2.609375 7.453125 -2.84375q0.796875 0 1.3125 0q0.53125 0 0.921875 0.078125l0 7.921875zm70.40434 34.234375l-8.796875 0l0 -23.4375q0 -5.84375 -1.921875 -8.5625q-1.921875 -2.71875 -5.609375 -2.71875q-3.671875 0 -6.84375 2.765625q-3.15625 2.75 -4.421875 7.15625l0 24.796875l-8.8125 0l0 -23.4375q0 -5.84375 -1.921875 -8.5625q-1.90625 -2.71875 -5.515625 -2.71875q-3.671875 0 -6.84375 2.71875q-3.15625 2.71875 -4.515625 7.125l0 24.875l-8.796875 0l0 -41.84375l8.0 0l0 8.40625q2.484375 -4.40625 6.515625 -6.765625q4.046875 -2.359375 9.25 -2.359375q5.1875 0 8.1875 2.71875q3.0 2.71875 3.71875 6.796875q2.734375 -4.640625 6.6875 -7.078125q3.953125 -2.4375 9.078125 -2.4375q3.6875 0 6.15625 1.359375q2.484375 1.359375 3.84375 3.71875q1.359375 2.359375 1.953125 5.453125q0.609375 3.078125 0.609375 6.515625l0 25.515625z" fill-rule="nonzero"/><path fill="#00c375" d="m206.36469 111.15958l0 -41.84375l8.796875 0l0 41.84375l-8.796875 0zm0 -48.71875l0 -9.6875l8.796875 0l0 9.6875l-8.796875 0zm42.641235 46.5625q-1.125 0.5625 -2.8125 1.203125q-1.671875 0.640625 -3.796875 1.109375q-2.109375 0.484375 -4.359375 0.484375q-2.71875 0 -5.046875 -0.953125q-2.3125 -0.96875 -3.71875 -3.078125q-1.390625 -2.125 -1.390625 -5.484375l0 -26.171875l-5.515625 0l0 -6.796875l5.515625 0l0 -13.75l8.796875 0l0 13.75l9.125 0l0 6.796875l-9.125 0l0 23.359375q0.171875 2.171875 1.40625 3.21875q1.234375 1.03125 3.078125 1.03125q1.84375 0 3.515625 -0.640625q1.6875 -0.640625 2.484375 -1.046875l1.84375 6.96875z" fill-rule="nonzero"/><path fill="#078e58" d="m279.88153 111.56583q-6.796875 0 -11.484375 -2.3125q-4.671875 -2.328125 -7.515625 -6.328125q-2.84375 -4.0 -4.171875 -9.125q-1.3125153 -5.125 -1.3125153 -10.640625l0 -28.796875l8.968765 0l0 28.796875q0 3.921875 0.796875 7.5625q0.796875 3.640625 2.5625 6.515625q1.765625 2.875 4.765625 4.5625q3.0 1.671875 7.390625 1.671875q4.484375 0 7.484375 -1.71875q3.0 -1.71875 4.71875 -4.625q1.71875 -2.921875 2.515625 -6.515625q0.796875 -3.609375 0.796875 -7.453125l0 -28.796875l9.046875 0l0 28.796875q0 5.84375 -1.40625 11.0q-1.390625 5.15625 -4.3125 9.046875q-2.921875 3.875 -7.5625 6.125q-4.640625 2.234375 -11.28125 2.234375z" fill-rule="nonzero"/><path fill="#078e58" d="m339.0102 111.95645q-5.046875 0 -8.890625 -2.390625q-3.84375 -2.40625 -6.078125 -6.25l0 24.890625l-8.796875 0l0 -58.890625l7.765625 0l0 7.53125q2.390625 -3.765625 6.234375 -6.0q3.84375 -2.25 8.5625 -2.25q4.3125 0 7.90625 1.71875q3.609375 1.71875 6.25 4.765625q2.640625 3.03125 4.109375 6.921875q1.484375 3.875 1.484375 8.203125q0 6.0 -2.359375 10.953125q-2.359375 4.953125 -6.5625 7.875q-4.1875 2.921875 -9.625 2.921875zm-2.890625 -7.515625q2.796875 0 5.078125 -1.203125q2.28125 -1.203125 3.921875 -3.203125q1.640625 -2.0 2.515625 -4.546875q0.890625 -2.5625 0.890625 -5.28125q0 -2.890625 -0.96875 -5.4375q-0.953125 -2.5625 -2.75 -4.484375q-1.796875 -1.921875 -4.171875 -3.046875q-2.359375 -1.125 -5.15625 -1.125q-1.671875 0 -3.515625 0.640625q-1.84375 0.640625 -3.453125 1.765625q-1.59375 1.125 -2.796875 2.640625q-1.1875 1.515625 -1.671875 3.203125l0 10.953125q1.125 2.5625 2.953125 4.609375q1.84375 2.03125 4.25 3.28125q2.40625 1.234375 4.875 1.234375z" fill-rule="nonzero"/></g><g filter="url(#shadowFilter-p.2)"><use xlink:href="#p.2" transform="matrix(1.0 0.0 0.0 1.0 0.0 2.0)"/></g><defs><filter id="shadowFilter-p.2" filterUnits="userSpaceOnUse"><feGaussianBlur in="SourceAlpha" stdDeviation="2.0" result="blur"/><feComponentTransfer in="blur" color-interpolation-filters="sRGB"><feFuncR type="linear" slope="0" intercept="0.0"/><feFuncG type="linear" slope="0" intercept="0.0"/><feFuncB type="linear" slope="0" intercept="0.0"/><feFuncA type="linear" slope="0.5" intercept="0"/></feComponentTransfer></filter></defs><g id="p.2"><path fill="#000000" fill-opacity="0.0" d="m-3.9343832 -19.979002l189.85828 0l0 56.15748l-189.85828 0z" fill-rule="evenodd"/><path fill="#01633c" d="m44.76874 45.340996l0 -29.6875l-12.25 22.53125l-3.875 0l-12.3125 -22.53125l0 29.6875l-6.578125 0l0 -41.640625l7.046875 0l13.78125 25.453125l13.78125 -25.453125l7.046875 0l0 41.640625l-6.640625 0zm28.565418 0.59375q-3.578125 0 -6.484375 -1.265625q-2.8906288 -1.265625 -5.000004 -3.453125q-2.109375 -2.203125 -3.265625 -5.046875q-1.140625 -2.859375 -1.140625 -6.078123q0 -4.34375 1.984375 -7.953125q2.0 -3.609375 5.578129 -5.796875q3.578125 -2.203126 8.390625 -2.203126q4.8125 0 8.296875 2.203126q3.5 2.1875 5.4375 5.765625q1.9375 3.578125 1.9375 7.6875q0 0.703125 -0.0625 1.328125q-0.0625 0.609375 -0.125 1.0156231l-24.578125 0q0.1875 2.703125 1.5 4.734375q1.328125 2.015625 3.375 3.15625q2.046875 1.140625 4.390625 1.140625q2.59375 0 4.90625 -1.28125q2.3125 -1.296875 3.140625 -3.40625l5.515625 1.59375q-1.0 2.21875 -3.03125 4.015625q-2.015625 1.78125 -4.78125 2.8125q-2.75 1.03125 -5.984375 1.03125zm-9.203125 -18.078123l18.53125 0q-0.171875 -2.640625 -1.5 -4.65625q-1.3125 -2.03125 -3.34375 -3.171875q-2.015625 -1.140625 -4.484375 -1.140625q-2.390625 0 -4.421875 1.140625q-2.015625 1.140625 -3.3125 3.171875q-1.296875 2.015625 -1.46875 4.65625zm28.275452 2.171875q0 -4.390625 1.78125 -8.0q1.796875 -3.609375 4.90625 -5.75q3.109375 -2.140626 7.15625 -2.140626q3.515625 0 6.359375 1.828125q2.84375 1.812501 4.4375 4.500001l0 -17.9375l6.453125 0l0 35.546875q0 1.109375 0.40625 1.578125q0.40625 0.46875 1.34375 0.53125l0 5.15625q-1.8125 0.296875 -2.8125 0.296875q-1.8125 0 -3.078125 -1.046875q-1.265625 -1.0625 -1.328125 -2.53125l-0.046875 -2.296875q-1.765625 2.9375 -4.765625 4.5625q-2.984375 1.609375 -6.203125 1.609375q-3.171875 0 -5.84375 -1.234375q-2.671875 -1.234375 -4.640625 -3.453125q-1.953125 -2.234375 -3.046875 -5.109375q-1.078125 -2.875 -1.078125 -6.109373zm24.640625 4.281248l0 -8.031248q-0.65625 -1.875 -2.09375 -3.375q-1.4375 -1.5 -3.234375 -2.375q-1.78125 -0.875 -3.53125 -0.875q-2.0625 0 -3.734375 0.875q-1.671875 0.875 -2.875 2.34375q-1.203125 1.46875 -1.84375 3.34375q-0.640625 1.875 -0.640625 3.9375q0 2.109373 0.703125 3.953123q0.703125 1.84375 2.015625 3.28125q1.328125 1.4375 3.046875 2.234375q1.734375 0.796875 3.796875 0.796875q1.28125 0 2.59375 -0.46875q1.328125 -0.46875 2.53125 -1.296875q1.203125 -0.828125 2.046875 -1.9375q0.859375 -1.109375 1.21875 -2.40625z" fill-rule="nonzero"/></g></g></svg>